<svg xmlns="http://www.w3.org/2000/svg" viewBox="0 0 1200 600" width="1200" height="600">
  <defs>
    <linearGradient id="goldGrad2" x1="0%" y1="0%" x2="100%" y2="100%">
      <stop offset="0%" stop-color="#d4a949"/>
      <stop offset="35%" stop-color="#f4d27a"/>
      <stop offset="60%" stop-color="#c8962e"/>
      <stop offset="100%" stop-color="#8a6420"/>
    </linearGradient>
  </defs>

  <rect width="1200" height="600" fill="#0a0604"/>

  <g transform="translate(600, 220) scale(2.2)" fill="url(#goldGrad2)">
    <g stroke="url(#goldGrad2)" stroke-width="2.2" fill="none" stroke-linecap="round">
      <path d="M -42,-85 Q -50,-100 -55,-115 Q -58,-125 -55,-138"/>
      <path d="M -50,-100 L -68,-105"/>
      <path d="M -68,-105 L -76,-100"/>
      <path d="M -68,-105 L -72,-115"/>
      <path d="M -55,-115 L -72,-122"/>
      <path d="M -72,-122 L -78,-130"/>
      <path d="M -55,-125 L -67,-135"/>
      <path d="M -55,-138 L -62,-148"/>
      <path d="M -55,-138 L -48,-148"/>
      <path d="M -45,-95 L -55,-92"/>

      <path d="M 42,-85 Q 50,-100 55,-115 Q 58,-125 55,-138"/>
      <path d="M 50,-100 L 68,-105"/>
      <path d="M 68,-105 L 76,-100"/>
      <path d="M 68,-105 L 72,-115"/>
      <path d="M 55,-115 L 72,-122"/>
      <path d="M 72,-122 L 78,-130"/>
      <path d="M 55,-125 L 67,-135"/>
      <path d="M 55,-138 L 62,-148"/>
      <path d="M 55,-138 L 48,-148"/>
      <path d="M 45,-95 L 55,-92"/>
    </g>

    <path d="M 0,-80
             Q -15,-78 -25,-65
             Q -32,-50 -35,-30
             L -38,-10
             Q -38,5 -32,15
             L -28,22
             Q -20,28 -10,30
             L 0,32
             L 10,30
             Q 20,28 28,22
             L 32,15
             Q 38,5 38,-10
             L 35,-30
             Q 32,-50 25,-65
             Q 15,-78 0,-80 Z"
             fill="url(#goldGrad2)"/>

    <path d="M -25,20
             Q -30,40 -28,60
             Q -25,80 -15,90
             L 15,90
             Q 25,80 28,60
             Q 30,40 25,20 Z"
             fill="url(#goldGrad2)"/>

    <ellipse cx="-12" cy="-30" rx="2.5" ry="3.5" fill="#0a0604"/>
    <ellipse cx="12" cy="-30" rx="2.5" ry="3.5" fill="#0a0604"/>
    <ellipse cx="0" cy="10" rx="3" ry="2" fill="#0a0604"/>
  </g>

  <g stroke="url(#goldGrad2)" stroke-width="1" fill="none" opacity="0.8">
    <line x1="350" y1="440" x2="540" y2="440"/>
    <line x1="660" y1="440" x2="850" y2="440"/>
    <path d="M 540 440 L 555 432 L 570 442 L 585 432 L 600 442 L 615 432 L 630 442 L 645 432 L 660 440" stroke-width="1.2"/>
  </g>

  <text x="600" y="500"
        font-family="Georgia, 'Times New Roman', serif"
        font-size="78"
        font-weight="700"
        fill="url(#goldGrad2)"
        text-anchor="middle"
        letter-spacing="16">BLACKMOOR</text>

  <text x="600" y="545"
        font-family="Georgia, serif"
        font-size="16"
        fill="url(#goldGrad2)"
        text-anchor="middle"
        letter-spacing="12"
        font-style="italic">AGED IN THE HIGHLANDS · EST. 1876</text>
</svg>
